<?xml version="1.0" encoding="UTF-8" standalone="no"?>
<svg width="1024px" height="256px" viewBox="0 0 1024 256" version="1.1" xmlns="http://www.w3.org/2000/svg" xmlns:xlink="http://www.w3.org/1999/xlink">
    <!-- Generator: Sketch 39.1 (31720) - http://www.bohemiancoding.com/sketch -->
    <title>Logo</title>
    <desc>Created with Sketch.</desc>
    <defs>
        <path d="M0,16.0018421 C0,7.16426874 7.16462537,0 16.0018421,0 L239.998158,0 C248.835731,0 256,7.16462537 256,16.0018421 L256,239.998158 C256,248.835731 248.835375,256 239.998158,256 L16.0018421,256 C7.16426874,256 0,248.835375 0,239.998158 L0,16.0018421 Z M16,31.9971933 C16,23.1621874 23.1677502,16 31.9971933,16 L224.002807,16 C232.837813,16 240,23.1677502 240,31.9971933 L240,224.002807 C240,232.837813 232.83225,240 224.002807,240 L31.9971933,240 C23.1621874,240 16,232.83225 16,224.002807 L16,31.9971933 Z" id="path-1"></path>
        <mask id="mask-2" maskContentUnits="userSpaceOnUse" maskUnits="objectBoundingBox" x="0" y="0" width="256" height="256" fill="white">
            <use xlink:href="#path-1"></use>
        </mask>
    </defs>
    <g id="Page-1" stroke="none" stroke-width="1" fill="none" fill-rule="evenodd">
        <g id="Logo">
            <g id="Group-2">
                <text id="Backstroke" font-family="Lato-Regular, Lato" font-size="128" font-weight="normal" fill="#333333">
                    <tspan x="329" y="169">Backstroke</tspan>
                </text>
                <g id="Group">
                    <path d="M169.9364,265.05329 C168.08147,250.597016 169.14786,244.648753 178.48117,217.391966 C184.39221,200.129466 186.88739,186.793584 189.63937,157.755299 C190.18414,152.006995 191.93947,143.704357 194.08115,136.745891 C197.504,125.6248 203.33069,104.827747 206.0736,93.9415418 C206.80634,91.0333994 207.71488,85.3547764 208.09257,81.3223906 C208.73082,74.5083391 208.61741,73.8398897 206.48604,71.8533201 C201.90354,67.5821673 196.42923,70.0073334 193.21362,77.7331132 C192.41517,79.6514623 190.37438,86.5019701 188.67853,92.9564506 C186.98268,99.4109411 184.05515,107.739671 182.1729,111.464739 C179.08325,117.579367 173.52565,134.371197 173.55725,137.496227 C173.57385,139.134851 171.42141,139.090061 169.11636,137.403785 C167.34015,136.104413 167.35328,135.630561 169.52062,122.808029 C170.75266,115.519035 172.18086,108.132297 172.6944,106.393078 C173.64702,103.166883 178.00402,67.8500773 179.55892,50.7508698 C180.69978,38.2049514 178.9364,34.7962249 171.27215,34.7320061 C168.42463,34.7081954 166.86083,35.3625485 165.02215,37.3473973 C163.67341,38.8033594 162.5699,40.3976933 162.5699,40.890354 C162.5699,46.6508937 156.83831,79.8511217 154.5725,87.2152496 C152.95572,92.4699828 150.89311,101.816088 149.98893,107.984371 C148.07296,121.055114 147.21906,123.740066 144.97815,123.740066 C143.13361,123.740066 143.33737,119.57252 146.14002,99.9757741 C147.27307,92.0532462 147.36663,88.2115157 146.55095,83.1032381 C145.97006,79.465379 145.55394,65.6391872 145.62624,52.3783786 C145.75561,28.6517332 145.72264,28.2393585 143.55301,26.4817614 C142.20061,25.3861508 139.68593,24.6957116 137.04801,24.6957116 C133.5008,24.6957116 132.30712,25.2195261 130.23204,27.686731 C127.34303,31.1216493 127.07521,32.920915 125.53965,59.2111685 C124.96115,69.115604 124.08828,81.2710476 123.59994,86.2232653 C123.11159,91.1754831 122.67391,100.629717 122.62731,107.232674 C122.51761,122.776865 122.24694,123.740066 117.98845,123.740066 C115.79451,123.740066 114.30998,123.12264 113.68218,121.949054 C113.15522,120.963993 112.40207,114.098419 112.00849,106.692222 C111.61492,99.2860152 110.68773,90.9753935 109.94807,88.2241614 C109.20841,85.4729293 107.69041,74.528338 106.57474,63.9028396 C104.64281,45.5034298 102.96748,38.2093233 100.281111,36.5013585 C98.055641,35.0864248 92.900541,35.6792703 90.680651,37.6054329 C89.473261,38.6530721 88.073141,40.9483099 87.569281,42.7059571 C86.432221,46.6723933 87.078571,93.0566055 88.549141,113.024998 C89.148471,121.163002 89.434311,128.152412 89.184361,128.557024 C88.934411,128.961635 88.244851,133.644632 87.652001,138.963664 C86.544481,148.900484 82.192771,164.758436 80.573451,164.758436 C77.641866,164.758436 74.416496,161.785804 70.977806,155.914705 C66.076596,147.546528 62.569906,140.038785 62.569906,137.913574 C62.569906,134.589895 56.329446,123.872116 51.438226,118.795282 C45.972306,113.121951 40.587916,110.26171 37.047376,111.150729 C33.564156,112.02535 33.452616,115.281729 36.612226,123.854908 C38.452676,128.848704 39.769186,134.790695 40.190116,140.0035 C40.766186,147.137454 41.506306,149.554497 45.671666,157.904816 C48.320216,163.214384 52.137436,172.535218 54.154356,178.617772 C56.171286,184.700326 59.227386,191.741559 60.945696,194.264959 C76.793876,217.538482 83.440741,226.998648 86.844061,231.124796 C92.735271,238.267395 94.481571,242.675569 96.135091,254.578199 C96.954571,260.477041 97.858041,266.766558 98.142791,268.554859 L98.660531,271.806315 L134.73171,271.806315 L170.8029,271.806315 L169.9364,265.05329 L169.9364,265.05329 Z" id="path4147" fill="#D09781"></path>
                    <path d="M101.487994,41.5417466 C101.487994,43.5023446 104.860454,54.9501213 96.529309,54.0453861 C88.607848,53.1851509 89.140051,43.5023446 89.140051,41.5417466 C89.140051,39.5811486 91.904234,37.9917669 95.314025,37.9917669 C98.723814,37.9917669 101.487994,39.5811486 101.487994,41.5417466 L101.487994,41.5417466 Z" id="path4149" fill="#DCB4A3" transform="translate(95.647805, 46.043990) rotate(-7.328156) translate(-95.647805, -46.043990) "></path>
                    <path d="M143.14996,31.2865431 C142.76063,33.2080636 143.85109,44.6706969 135.72125,43.183621 C127.99118,41.7696778 130.44477,32.3182351 130.83409,30.3967146 C131.22342,28.4751941 134.29603,27.1166857 137.69696,27.3624158 C141.09789,27.6081258 143.53928,29.3650226 143.14996,31.2865431 L143.14996,31.2865431 Z" id="path4152" fill="#DCB4A3"></path>
                    <path d="M165.19696,41.2082463 C165.40216,43.1580695 163.22874,54.4653232 171.46298,53.7572361 C179.29232,53.0839846 177.74683,43.4421667 177.54163,41.4923536 C177.33643,39.5425304 174.40663,37.898284 170.99775,37.8198389 C167.58885,37.7414038 164.99176,39.2584231 165.19696,41.2082463 L165.19696,41.2082463 Z" id="path4154" fill="#DCB4A3"></path>
                    <path d="M196.64807,74.8303833 C196.34971,76.5494331 191.74033,85.700061 198.96131,87.0974968 C205.82721,88.4262319 206.84819,79.7963872 207.14654,78.0773373 C207.4449,76.3582775 205.33659,74.2378479 202.43752,73.3412364 C199.53845,72.4446149 196.94642,73.1113234 196.64807,74.8303833 L196.64807,74.8303833 Z" id="path4156" fill="#DCB4A3"></path>
                    <path d="M38.517754,113.889455 C39.610519,115.152561 50.722777,133.527449 43.101319,131.045588 C41.790316,130.618667 39.993787,129.806713 38.267819,128.740126 C36.734462,127.792571 31.127283,112.843287 34.509222,112.505585 C37.891159,112.167894 37.349765,112.5394 38.517754,113.889455 L38.517754,113.889455 Z" id="path4158" fill="#DCB4A3"></path>
                    <use id="Combined-Shape" stroke="#68DDE8" mask="url(#mask-2)" stroke-width="32" fill="#68DDE8" xlink:href="#path-1"></use>
                </g>
            </g>
        </g>
    </g>
</svg>