<?xml version="1.0" encoding="UTF-8" standalone="no"?>
<svg width="1024px" height="256px" viewBox="0 0 1024 256" version="1.1" xmlns="http://www.w3.org/2000/svg" xmlns:xlink="http://www.w3.org/1999/xlink">
    <!-- Generator: Sketch 39.1 (31720) - http://www.bohemiancoding.com/sketch -->
    <title>Inverse</title>
    <desc>Created with Sketch.</desc>
    <defs>
        <path d="M0,16.0018421 C0,7.16426874 7.16462537,0 16.0018421,0 L239.998158,0 C248.835731,0 256,7.16462537 256,16.0018421 L256,239.998158 C256,248.835731 248.835375,256 239.998158,256 L16.0018421,256 C7.16426874,256 0,248.835375 0,239.998158 L0,16.0018421 Z M16,31.9971933 C16,23.1621874 23.1677502,16 31.9971933,16 L224.002807,16 C232.837813,16 240,23.1677502 240,31.9971933 L240,224.002807 C240,232.837813 232.83225,240 224.002807,240 L31.9971933,240 C23.1621874,240 16,232.83225 16,224.002807 L16,31.9971933 Z" id="path-1"></path>
        <mask id="mask-2" maskContentUnits="userSpaceOnUse" maskUnits="objectBoundingBox" x="0" y="0" width="256" height="256" fill="white">
            <use xlink:href="#path-1"></use>
        </mask>
    </defs>
    <g id="Page-1" stroke="none" stroke-width="1" fill="none" fill-rule="evenodd">
        <g id="Inverse" fill="#FFFFFF">
            <g id="Group-2">
                <text id="Backstroke" font-family="Lato-Regular, Lato" font-size="128" font-weight="normal">
                    <tspan x="329" y="169">Backstroke</tspan>
                </text>
                <g id="Group" transform="translate(34.000000, 24.000000)">
                    <path d="M135.9364,241.05329 C134.08147,226.597016 135.14786,220.648753 144.48117,193.391966 C150.39221,176.129466 152.88739,162.793584 155.63937,133.755299 C156.18414,128.006995 157.93947,119.704357 160.08115,112.745891 C163.504,101.6248 169.33069,80.8277469 172.0736,69.9415418 C172.80634,67.0333994 173.71488,61.3547764 174.09257,57.3223906 C174.73082,50.5083391 174.61741,49.8398897 172.48604,47.8533201 C167.90354,43.5821673 162.42923,46.0073334 159.21362,53.7331132 C158.41517,55.6514623 156.37438,62.5019701 154.67853,68.9564506 C152.98268,75.4109411 150.05515,83.739671 148.1729,87.4647392 C145.08325,93.5793675 139.52565,110.371197 139.55725,113.496227 C139.57385,115.134851 137.42141,115.090061 135.11636,113.403785 C133.34015,112.104413 133.35328,111.630561 135.52062,98.808029 C136.75266,91.5190348 138.18086,84.1322968 138.6944,82.3930779 C139.64702,79.1668831 144.00402,43.8500773 145.55892,26.7508698 C146.69978,14.2049514 144.9364,10.7962249 137.27215,10.7320061 C134.42463,10.7081954 132.86083,11.3625485 131.02215,13.3473973 C129.67341,14.8033594 128.5699,16.3976933 128.5699,16.890354 C128.5699,22.6508937 122.83831,55.8511217 120.5725,63.2152496 C118.95572,68.4699828 116.89311,77.8160882 115.98893,83.9843706 C114.07296,97.055114 113.21906,99.7400664 110.97815,99.7400664 C109.13361,99.7400664 109.33737,95.5725201 112.14002,75.9757741 C113.27307,68.0532462 113.36663,64.2115157 112.55095,59.1032381 C111.97006,55.465379 111.55394,41.6391872 111.62624,28.3783786 C111.75561,4.65173318 111.72264,4.2393585 109.55301,2.4817614 C108.20061,1.38615076 105.68593,0.695711559 103.04801,0.695711559 C99.5008,0.695711559 98.30712,1.21952614 96.23204,3.68673102 C93.34303,7.12164927 93.07521,8.92091504 91.53965,35.2111685 C90.96115,45.115604 90.08828,57.2710476 89.59994,62.2232653 C89.11159,67.1754831 88.67391,76.6297169 88.62731,83.2326739 C88.51761,98.776865 88.24694,99.7400664 83.98845,99.7400664 C81.79451,99.7400664 80.30998,99.1226399 79.68218,97.9490543 C79.15522,96.9639932 78.40207,90.0984186 78.00849,82.6922219 C77.61492,75.2860152 76.68773,66.9753935 75.94807,64.2241614 C75.20841,61.4729293 73.69041,50.528338 72.57474,39.9028396 C70.64281,21.5034298 68.96748,14.2093233 66.281111,12.5013585 C64.055641,11.0864248 58.900541,11.6792703 56.680651,13.6054329 C55.473261,14.6530721 54.073141,16.9483099 53.569281,18.7059571 C52.432221,22.6723933 53.078571,69.0566055 54.549141,89.0249979 C55.148471,97.1630023 55.434311,104.152412 55.184361,104.557024 C54.934411,104.961635 54.244851,109.644632 53.652001,114.963664 C52.544481,124.900484 48.192771,140.758436 46.573451,140.758436 C43.641866,140.758436 40.416496,137.785804 36.977806,131.914705 C32.076596,123.546528 28.569906,116.038785 28.569906,113.913574 C28.569906,110.589895 22.329446,99.8721155 17.438226,94.795282 C11.972306,89.1219513 6.587916,86.2617104 3.047376,87.1507285 C-0.435844,88.0253502 -0.547384,91.2817285 2.612226,99.8549078 C4.452676,104.848704 5.769186,110.790695 6.190116,116.0035 C6.766186,123.137454 7.506306,125.554497 11.671666,133.904816 C14.320216,139.214384 18.137436,148.535218 20.154356,154.617772 C22.171286,160.700326 25.227386,167.741559 26.945696,170.264959 C42.793876,193.538482 49.440741,202.998648 52.844061,207.124796 C58.735271,214.267395 60.481571,218.675569 62.135091,230.578199 C62.954571,236.477041 63.858041,242.766558 64.142791,244.554859 L64.660531,247.806315 L100.73171,247.806315 L136.8029,247.806315 L135.9364,241.05329 L135.9364,241.05329 Z" id="path4147"></path>
                </g>
                <use id="Combined-Shape" stroke="#FFFFFF" mask="url(#mask-2)" stroke-width="32" xlink:href="#path-1"></use>
            </g>
        </g>
    </g>
</svg>