<?xml version="1.0" encoding="UTF-8" standalone="no"?>
<svg width="1024px" height="256px" viewBox="0 0 1024 256" version="1.1" xmlns="http://www.w3.org/2000/svg" xmlns:xlink="http://www.w3.org/1999/xlink">
    <!-- Generator: Sketch 39.1 (31720) - http://www.bohemiancoding.com/sketch -->
    <title>Logo</title>
    <desc>Created with Sketch.</desc>
    <defs>
        <rect id="path-1" x="0" y="0" width="256" height="256" rx="16"></rect>
        <mask id="mask-2" maskContentUnits="userSpaceOnUse" maskUnits="objectBoundingBox" x="0" y="0" width="256" height="256" fill="white">
            <use xlink:href="#path-1"></use>
        </mask>
    </defs>
    <g id="Page-1" stroke="none" stroke-width="1" fill="none" fill-rule="evenodd">
        <g id="Logo">
            <g id="Group-2">
                <text id="Backstroke" font-family="Lato-Regular, Lato" font-size="128" font-weight="normal" fill="#333333">
                    <tspan x="329" y="169">Backstroke</tspan>
                </text>
                <use id="Rectangle" stroke="#68DDE8" mask="url(#mask-2)" stroke-width="32" fill="#68DDE8" xlink:href="#path-1"></use>
                <rect id="Rectangle" fill="#FFFFFF" x="16" y="16" width="224" height="224" rx="16"></rect>
                <g id="Group" transform="translate(49.000000, 37.500000)">
                    <path d="M112.038873,197.225419 C110.521203,185.397559 111.393704,180.530798 119.030048,158.229791 C123.866354,144.105926 125.907865,133.19475 128.159485,109.436154 C128.605205,104.732996 130.041385,97.9399284 131.793668,92.2466379 C134.594182,83.147564 139.361474,66.1317929 141.605673,57.2248978 C142.205187,54.8455086 142.948538,50.1993625 143.257557,46.9001377 C143.779762,41.3250047 143.686972,40.7780916 141.943124,39.1527164 C138.193805,35.6581369 133.714825,37.6423637 131.083871,43.9634562 C130.430594,45.5330146 128.760856,51.1379756 127.373343,56.4189142 C125.985829,61.6998609 123.590577,68.5142762 122.050555,71.5620593 C119.522659,76.564937 114.975532,90.3037069 115.001386,92.8605492 C115.014968,94.2012414 113.253881,94.164595 111.367931,92.7849153 C109.914668,91.7217929 109.925411,91.3340956 111.698689,80.8429328 C112.706722,74.8792103 113.875249,68.8355156 114.295418,67.4125183 C115.074835,64.7729044 118.639653,35.877336 119.911844,21.8870753 C120.845275,11.6222329 119.402509,8.83327488 113.131759,8.78073226 C110.80197,8.76125081 109.522497,9.29663056 108.018123,10.9205978 C106.914608,12.1118395 106.011736,13.4162946 106.011736,13.8193805 C106.011736,18.5325494 101.322254,45.6963723 99.4684091,51.7215678 C98.1455891,56.020895 96.4579991,63.6677085 95.7182155,68.714485 C94.1506036,79.4087296 93.4519582,81.6055089 91.6184864,81.6055089 C90.1093173,81.6055089 90.27603,78.1956982 92.5691073,62.161997 C93.4961482,55.6799287 93.5726973,52.5366947 92.9053227,48.3571948 C92.4300491,45.3807646 92.0895873,34.0684259 92.1487418,23.2186734 C92.25459,3.80596351 92.2276145,3.46856605 90.4524627,2.03053206 C89.3459536,1.13412335 87.2884882,0.569218548 85.13019,0.569218548 C82.2279273,0.569218548 81.25128,0.997794113 79.5534873,3.01641629 C77.1897518,5.82680395 76.9706264,7.29893048 75.7142591,28.8091379 C75.2409409,36.9127669 74.5267745,46.8581298 74.1272236,50.9099444 C73.7276645,54.9617589 73.3695627,62.6970411 73.3314355,68.0994605 C73.2416809,80.817435 73.0202236,81.6055089 69.5360045,81.6055089 C67.7409627,81.6055089 66.5263473,81.1003417 66.0126927,80.1401354 C65.5815436,79.3341762 64.96533,73.7168879 64.64331,67.6572725 C64.3212982,61.5976488 63.5626882,54.7980492 62.9575118,52.5470411 C62.3523355,50.2960331 61.1103355,41.3413675 60.1975145,32.6477779 C58.6168445,17.5937153 57.24612,11.62581 55.0481817,10.2283842 C53.2273426,9.07071121 49.0095335,9.55576661 47.1932599,11.1317178 C46.2053954,11.9888771 45.0598426,13.866799 44.6475935,15.304874 C43.7172717,18.55014 44.2461035,56.500859 45.4492972,72.8386346 C45.9396581,79.4970019 46.1735272,85.2156101 45.9690226,85.5466556 C45.7645181,85.8777012 45.2003326,89.7092443 44.7152735,94.0611796 C43.8091208,102.191305 40.2486308,115.165993 38.9237326,115.165993 C36.5251631,115.165993 33.886224,112.73384 31.0727504,107.930213 C27.0626695,101.083523 24.1935595,94.9408244 24.1935595,93.2020148 C24.1935595,90.4826416 19.0877285,81.7135491 15.0858213,77.5597762 C10.6137049,72.9179602 6.20829491,70.5777631 3.31148945,71.3051415 C0.461582182,72.0207411 0.370322182,74.6850506 2.95545764,81.69947 C4.46128036,85.7853034 5.53842491,90.6469324 5.88282218,94.9119542 C6.35415218,100.748826 6.95970491,102.726406 10.3677267,109.558486 C12.5347222,113.902678 15.6579022,121.528815 17.3081095,126.50545 C18.9583249,131.482085 21.4587704,137.243094 22.8646604,139.307694 C35.8313531,158.349667 41.2696972,166.089803 44.0542317,169.465742 C48.8743126,175.309687 50.3031035,178.916375 51.6559835,188.65489 C52.3264672,193.481215 53.0656699,198.627184 53.2986472,200.090339 L53.7222526,202.750621 L83.2350355,202.750621 L112.747827,202.750621 L112.038873,197.225419 L112.038873,197.225419 Z" id="path4147" fill="#D09781"></path>
                    <path d="M56.0356315,14.3523382 C56.0356315,15.9564638 58.7949169,25.3228265 51.9785256,24.5825886 C45.4973302,23.8787598 45.932769,15.9564638 45.932769,14.3523382 C45.932769,12.7482125 48.1943733,11.4478092 50.9842023,11.4478092 C53.7740297,11.4478092 56.0356315,12.7482125 56.0356315,14.3523382 L56.0356315,14.3523382 Z" id="path4149" fill="#DCB4A3" transform="translate(51.257295, 18.035992) rotate(-7.328156) translate(-51.257295, -18.035992) "></path>
                    <path d="M90.1226945,5.9617171 C89.8041518,7.53387024 90.6963464,16.9123884 84.0446591,15.6956899 C77.7200564,14.5388273 79.7275391,6.80582875 80.0460736,5.2336756 C80.3646164,3.66152246 82.87857,2.5500156 85.6611491,2.75106746 C88.4437282,2.95210294 90.4412291,4.38956395 90.1226945,5.9617171 L90.1226945,5.9617171 Z" id="path4152" fill="#DCB4A3"></path>
                    <path d="M108.161149,14.0794743 C108.32904,15.6747842 106.550787,24.9261735 113.287893,24.3468296 C119.693716,23.7959874 118.429225,15.9072273 118.261334,14.3119256 C118.093443,12.7166158 115.696334,11.3713233 112.90725,11.3071409 C110.11815,11.2429667 107.993258,12.4841644 108.161149,14.0794743 L108.161149,14.0794743 Z" id="path4154" fill="#DCB4A3"></path>
                    <path d="M133.893875,41.5884954 C133.649763,42.9949907 129.878452,50.4818681 135.786526,51.6252247 C141.404081,52.7123715 142.239428,45.6515895 142.483533,44.2450942 C142.727645,42.8385907 141.002665,41.1036938 138.630698,40.3701025 C136.258732,39.6365031 134.13798,40.1819919 133.893875,41.5884954 L133.893875,41.5884954 Z" id="path4156" fill="#DCB4A3"></path>
                    <path d="M4.514526,73.5459177 C5.40860645,74.5793678 14.5004539,89.6133677 8.26471555,87.5827538 C7.19207673,87.2334547 5.72218936,86.569129 4.31003373,85.6964664 C3.05546891,84.9211946 -1.532223,72.6899617 1.234818,72.4136607 C4.00185736,72.1373679 3.55889864,72.4413276 4.514526,73.5459177 L4.514526,73.5459177 Z" id="path4158" fill="#DCB4A3"></path>
                </g>
            </g>
        </g>
    </g>
</svg>