<?xml version="1.0" encoding="UTF-8" standalone="no"?>
<!-- Created with Inkscape (http://www.inkscape.org/) -->

<svg
   xmlns:dc="http://purl.org/dc/elements/1.1/"
   xmlns:cc="http://creativecommons.org/ns#"
   xmlns:rdf="http://www.w3.org/1999/02/22-rdf-syntax-ns#"
   xmlns:svg="http://www.w3.org/2000/svg"
   xmlns="http://www.w3.org/2000/svg"
   xmlns:sodipodi="http://sodipodi.sourceforge.net/DTD/sodipodi-0.dtd"
   xmlns:inkscape="http://www.inkscape.org/namespaces/inkscape"
   width="256"
   height="256"
   viewBox="0 0 256 256"
   id="svg2"
   version="1.1"
   inkscape:version="0.91 r"
   sodipodi:docname="logo.svg">
  <defs
     id="defs4" />
  <sodipodi:namedview
     id="base"
     pagecolor="#ffffff"
     bordercolor="#666666"
     borderopacity="1.0"
     inkscape:pageopacity="0.0"
     inkscape:pageshadow="2"
     inkscape:zoom="2.8"
     inkscape:cx="152.46978"
     inkscape:cy="120.34299"
     inkscape:document-units="px"
     inkscape:current-layer="layer1"
     showgrid="false"
     units="px"
     inkscape:window-width="1920"
     inkscape:window-height="1054"
     inkscape:window-x="0"
     inkscape:window-y="0"
     inkscape:window-maximized="1" />
  <metadata
     id="metadata7">
    <rdf:RDF>
      <cc:Work
         rdf:about="">
        <dc:format>image/svg+xml</dc:format>
        <dc:type
           rdf:resource="http://purl.org/dc/dcmitype/StillImage" />
        <dc:title></dc:title>
      </cc:Work>
    </rdf:RDF>
  </metadata>
  <g
     inkscape:label="Layer 1"
     inkscape:groupmode="layer"
     id="layer1"
     transform="translate(0,-796.36216)">
    <rect
       style="opacity:1;fill:#68dde8;fill-opacity:1;stroke:none;stroke-width:2;stroke-linecap:round;stroke-linejoin:round;stroke-miterlimit:4;stroke-dasharray:none;stroke-dashoffset:0;stroke-opacity:1"
       id="rect4160"
       width="256"
       height="256"
       x="0"
       y="796.36212" />
    <path
       style="fill:#d09781;fill-opacity:1"
       d="m 167.9364,1045.3075 c -1.85493,-14.4498 -0.78854,-20.3954 8.54477,-47.63998 5.91104,-17.25477 8.40622,-30.58468 11.1582,-59.60996 0.54477,-5.74573 2.3001,-14.04465 4.44178,-21 3.42285,-11.11611 9.24954,-31.90385 11.99245,-42.78518 0.73274,-2.90684 1.64128,-8.58292 2.01897,-12.6135 0.63825,-6.811 0.52484,-7.47915 -1.60653,-9.46483 -4.5825,-4.26924 -10.05681,-1.84516 -13.27242,5.87716 -0.79845,1.91749 -2.83924,8.76493 -4.53509,15.21652 -1.69585,6.4516 -4.62338,14.7766 -6.50563,18.5 -3.08965,6.11189 -8.64725,22.8962 -8.61565,26.01983 0.0166,1.63789 -2.13584,1.59312 -4.44089,-0.0924 -1.77621,-1.29879 -1.76308,-1.77243 0.40426,-14.58922 1.23204,-7.28573 2.66024,-14.66916 3.17378,-16.4076 0.95262,-3.22475 5.30962,-38.52574 6.86452,-55.61729 1.14086,-12.5403 -0.62252,-15.9475 -8.28677,-16.01169 -2.84752,-0.0238 -4.41132,0.63026 -6.25,2.61422 -1.34874,1.45531 -2.45225,3.04893 -2.45225,3.54137 0,5.75796 -5.73159,38.94332 -7.9974,46.30415 -1.61678,5.25238 -3.67939,14.5943 -4.58357,20.75982 -1.91597,13.06489 -2.76987,15.74864 -5.01078,15.74864 -1.84454,0 -1.64078,-4.16568 1.16187,-23.75365 1.13305,-7.91898 1.22661,-11.75899 0.41093,-16.86498 -0.58089,-3.63623 -0.99701,-17.45623 -0.92471,-30.7111 0.12937,-23.71602 0.0964,-24.12821 -2.07323,-25.88502 -1.3524,-1.09512 -3.86708,-1.78525 -6.505,-1.78525 -3.54721,0 -4.74089,0.52358 -6.81597,2.98968 -2.88901,3.43338 -3.15683,5.23184 -4.69239,31.51032 -0.5785,9.9 -1.45137,22.05 -1.93971,27 -0.48835,4.95 -0.92603,14.4 -0.97263,21 -0.1097,15.53723 -0.38037,16.5 -4.63886,16.5 -2.19394,0 -3.67847,-0.61715 -4.30627,-1.79021 -0.52696,-0.98462 -1.28011,-7.84712 -1.67369,-15.25 -0.39357,-7.40289 -1.32076,-15.70979 -2.06042,-18.45979 -0.73966,-2.75 -2.25766,-13.68969 -3.37333,-24.31043 -1.93193,-18.39117 -3.60726,-25.68201 -6.293629,-27.38921 -2.22547,-1.4143 -7.38057,-0.82172 -9.60046,1.10358 -1.20739,1.04717 -2.60751,3.34138 -3.11137,5.09824 -1.13706,3.96466 -0.49071,50.3281 0.97986,70.28755 0.59933,8.13436 0.88517,15.12064 0.63522,15.52507 -0.24995,0.40443 -0.93951,5.08533 -1.53236,10.40198 -1.10752,9.93237 -5.45923,25.78322 -7.07855,25.78322 -2.931585,0 -6.156955,-2.9713 -9.595645,-8.83977 -4.90121,-8.36443 -8.4079,-15.86881 -8.4079,-17.99307 0,-3.32219 -6.24046,-14.03517 -11.13168,-19.10973 -5.46592,-5.67079 -10.85031,-8.52975 -14.39085,-7.64113 -3.48322,0.87423 -3.59476,4.12915 -0.43515,12.69849 1.84045,4.99156 3.15696,10.93089 3.57789,16.14136 0.57607,7.13076 1.31619,9.54672 5.48155,17.8933 2.64855,5.30719 6.46577,14.62385 8.48269,20.70368 2.01693,6.07983 5.07303,13.11791 6.79134,15.64018 15.84818,23.2631 22.495045,32.71903 25.898365,36.84333 5.89121,7.1394 7.63751,11.5456 9.29103,23.4429 0.81948,5.8962 1.72295,12.1829 2.0077,13.9704 l 0.51774,3.25 36.071179,0 36.07119,0 -0.8665,-6.75 z"
       id="path4147"
       inkscape:connector-curvature="0" />
    <path
       transform="matrix(0.99183188,-0.12755203,0,1,0,0)"
       style="opacity:1;fill:#dcb4a3;fill-opacity:1;stroke:none;stroke-width:2.01122618;stroke-linecap:round;stroke-linejoin:round;stroke-miterlimit:4;stroke-dasharray:none;stroke-dashoffset:0;stroke-opacity:1"
       d="m 100.25922,833.93939 c 0,1.95972 3.37246,13.40237 -4.958685,12.49804 -7.921461,-0.85985 -7.389258,-10.53832 -7.389258,-12.49804 0,-1.95972 2.764183,-3.54839 6.173974,-3.54839 3.409789,0 6.173969,1.58867 6.173969,3.54839 z"
       id="path4149"
       inkscape:connector-curvature="0"
       sodipodi:nodetypes="sssss" />
    <path
       sodipodi:nodetypes="sssss"
       inkscape:connector-curvature="0"
       id="path4152"
       d="m 141.14996,811.64544 c -0.38933,1.92066 0.70113,13.37816 -7.42871,11.89175 -7.73007,-1.41331 -5.27648,-10.86052 -4.88716,-12.78118 0.38933,-1.92066 3.46194,-3.27856 6.86287,-3.03294 3.40093,0.2456 5.84232,2.00171 5.453,3.92237 z"
       style="opacity:1;fill:#dcb4a3;fill-opacity:1;stroke:none;stroke-width:2.01122618;stroke-linecap:round;stroke-linejoin:round;stroke-miterlimit:4;stroke-dasharray:none;stroke-dashoffset:0;stroke-opacity:1" />
    <path
       style="opacity:1;fill:#dcb4a3;fill-opacity:1;stroke:none;stroke-width:2.01122618;stroke-linecap:round;stroke-linejoin:round;stroke-miterlimit:4;stroke-dasharray:none;stroke-dashoffset:0;stroke-opacity:1"
       d="m 163.19696,821.5627 c 0.2052,1.94895 -1.96822,13.25114 6.26602,12.54337 7.82934,-0.67295 6.28385,-10.31045 6.07865,-12.25939 -0.2052,-1.94895 -3.135,-3.59246 -6.54388,-3.67087 -3.4089,-0.0784 -6.00599,1.43794 -5.80079,3.38689 z"
       id="path4154"
       inkscape:connector-curvature="0"
       sodipodi:nodetypes="sssss" />
    <path
       sodipodi:nodetypes="sssss"
       inkscape:connector-curvature="0"
       id="path4156"
       d="m 194.64807,855.16978 c -0.29836,1.71828 -4.90774,10.86481 2.31324,12.26162 6.8659,1.32814 7.88688,-7.29784 8.18523,-9.01612 0.29836,-1.71829 -1.80995,-3.83777 -4.70902,-4.73398 -2.89907,-0.89622 -5.4911,-0.22981 -5.78945,1.48848 z"
       style="opacity:1;fill:#dcb4a3;fill-opacity:1;stroke:none;stroke-width:2.01122618;stroke-linecap:round;stroke-linejoin:round;stroke-miterlimit:4;stroke-dasharray:none;stroke-dashoffset:0;stroke-opacity:1" />
    <path
       sodipodi:nodetypes="sssss"
       inkscape:connector-curvature="0"
       id="path4158"
       d="m 36.517754,894.21136 c 1.092765,1.26254 12.205023,19.6292 4.583565,17.14845 -1.311003,-0.42673 -3.107532,-1.23832 -4.8335,-2.30443 -1.533357,-0.94713 -7.140536,-15.88972 -3.758597,-16.22727 3.381937,-0.33754 2.840543,0.0338 4.008532,1.38325 z"
       style="opacity:1;fill:#dcb4a3;fill-opacity:1;stroke:none;stroke-width:2.01122618;stroke-linecap:round;stroke-linejoin:round;stroke-miterlimit:4;stroke-dasharray:none;stroke-dashoffset:0;stroke-opacity:1" />
  </g>
</svg>
