<?xml version="1.0" encoding="UTF-8" standalone="no"?>
<!-- Created with Inkscape (http://www.inkscape.org/) -->

<svg
   xmlns:dc="http://purl.org/dc/elements/1.1/"
   xmlns:cc="http://creativecommons.org/ns#"
   xmlns:rdf="http://www.w3.org/1999/02/22-rdf-syntax-ns#"
   xmlns:svg="http://www.w3.org/2000/svg"
   xmlns="http://www.w3.org/2000/svg"
   xmlns:sodipodi="http://sodipodi.sourceforge.net/DTD/sodipodi-0.dtd"
   xmlns:inkscape="http://www.inkscape.org/namespaces/inkscape"
   width="500"
   height="250"
   viewBox="0 0 499.99999 250"
   id="svg2"
   version="1.1"
   inkscape:version="0.91 r"
   sodipodi:docname="logo.svg">
  <defs
     id="defs4" />
  <sodipodi:namedview
     id="base"
     pagecolor="#ffffff"
     bordercolor="#666666"
     borderopacity="1.0"
     inkscape:pageopacity="0.0"
     inkscape:pageshadow="2"
     inkscape:zoom="0.98994949"
     inkscape:cx="-103.4113"
     inkscape:cy="-11.474226"
     inkscape:document-units="px"
     inkscape:current-layer="layer1"
     showgrid="false"
     fit-margin-top="0"
     fit-margin-left="0"
     fit-margin-right="0"
     fit-margin-bottom="0"
     inkscape:window-width="1920"
     inkscape:window-height="1054"
     inkscape:window-x="0"
     inkscape:window-y="0"
     inkscape:window-maximized="1"
     units="px" />
  <metadata
     id="metadata7">
    <rdf:RDF>
      <cc:Work
         rdf:about="">
        <dc:format>image/svg+xml</dc:format>
        <dc:type
           rdf:resource="http://purl.org/dc/dcmitype/StillImage" />
        <dc:title></dc:title>
      </cc:Work>
    </rdf:RDF>
  </metadata>
  <g
     inkscape:label="Layer 1"
     inkscape:groupmode="layer"
     id="layer1"
     transform="translate(-277.76192,-143.74021)">
    <path
       style="opacity:1;fill:#6fdfef;fill-opacity:1;stroke:#000000;stroke-width:0.49999997;stroke-linecap:round;stroke-linejoin:round;stroke-miterlimit:4;stroke-dasharray:none;stroke-dashoffset:0;stroke-opacity:1"
       d="m 304.97,258.9159 c 0,0 11.56859,1.71906 12.85375,27.07741 0.95721,18.88767 -19.32606,27.03402 -29.75474,29.96741 l -5.53942,0 0,1.30295 c -0.03,0.005 -0.47786,0.10784 -0.47786,0.10784 l 0.47786,0 0,76.11857 491.5339,0 0,-76.11857 0.21471,0 C 772.77887,262.57166 735.72673,258.916 735.72673,258.916 c 0,0 11.56858,1.71906 12.85375,27.07741 0.95716,18.88747 -19.32597,27.03392 -29.75474,29.96741 l -6.04654,0 C 710.65831,262.57803 674.32525,258.916 674.32525,258.916 c 0,0 11.56853,1.71906 12.8537,27.07741 0.95721,18.88767 -19.3358,27.03402 -29.76448,29.96741 l -5.50042,0 C 649.79316,262.57803 613.4601,258.916 613.4601,258.916 c 0,0 11.56858,1.71906 12.85375,27.07741 0.95721,18.88767 -19.33581,27.03402 -29.76453,29.96741 l -6.03675,0 C 588.39168,262.57803 552.05862,258.916 552.05862,258.916 c 0,0 11.5588,1.71906 12.84396,27.07741 0.95721,18.88767 -19.32607,27.03402 -29.75474,29.96741 l -6.4854,0 C 526.54156,262.57803 490.20849,258.916 490.20849,258.916 c 0,0 11.56859,1.71906 12.85375,27.07741 0.95716,18.88767 -19.33585,27.03402 -29.76452,29.96741 l -6.4854,0 C 464.69143,262.57803 428.35837,258.916 428.35837,258.916 c 0,0 11.56859,1.71906 12.85375,27.07741 0.95716,18.88747 -19.32597,27.03392 -29.75479,29.96741 l -6.62191,0 C 402.71453,262.57803 366.38147,258.916 366.38147,258.916 c 0,0 11.55885,1.71906 12.84401,27.07741 0.95716,18.88767 -19.32611,27.03402 -29.75479,29.96741 l -6.03675,0 C 341.31305,262.57803 304.9702,258.916 304.9702,258.916 Z"
       id="rect4167"
       inkscape:connector-curvature="0" />
    <ellipse
       style="opacity:1;fill:#ffcc00;fill-opacity:1;stroke:#000000;stroke-width:0.5;stroke-linecap:round;stroke-linejoin:round;stroke-miterlimit:4;stroke-dasharray:none;stroke-dashoffset:0;stroke-opacity:1"
       id="path4231"
       cx="354.36594"
       cy="197.69498"
       rx="37.449455"
       ry="37.618446" />
  </g>
</svg>
