<?xml version="1.0" encoding="UTF-8" standalone="no"?>
<svg width="700px" height="200px" viewBox="0 0 700 200" version="1.1" xmlns="http://www.w3.org/2000/svg" xmlns:xlink="http://www.w3.org/1999/xlink">
    <!-- Generator: Sketch 39.1 (31720) - http://www.bohemiancoding.com/sketch -->
    <title>maptwo</title>
    <desc>Created with Sketch.</desc>
    <defs></defs>
    <g id="Page-1" stroke="none" stroke-width="1" fill="none" fill-rule="evenodd">
        <g id="maptwo">
            <g id="Group-Copy" transform="translate(0.000000, 6.000000)">
                <path d="M487.792881,106.767791 C487.792881,106.767791 524.382724,114.761484 530.424716,67.0572893 C536.466709,19.3530945 591.404582,39.1402104 591.404582,39.1402107" id="Path-2-Copy" stroke="#E3E3E3" stroke-width="25" transform="translate(539.598731, 71.171771) scale(1, -1) rotate(-13.000000) translate(-539.598731, -71.171771) "></path>
                <g id="side-copy" transform="translate(416.000000, 25.000000) rotate(-270.000000) translate(-416.000000, -25.000000) translate(391.000000, -62.000000)" fill="#E2E2E2">
                    <rect id="Rectangle" x="13" y="44" width="25" height="88"></rect>
                    <path d="M25,174 C38.8071187,174 50,162.807119 50,149 C50,135.192881 38.8071187,124 25,124 C11.1928813,124 8.56757575e-15,135.192881 8.56757575e-15,149 C8.56757575e-15,162.807119 11.1928813,174 25,174 Z M25,165 C33.836556,165 41,157.836556 41,149 C41,140.163444 33.836556,133 25,133 C16.163444,133 9,140.163444 9,149 C9,157.836556 16.163444,165 25,165 Z" id="Combined-Shape"></path>
                    <path d="M25,50 C38.8071187,50 50,38.8071187 50,25 C50,11.1928813 38.8071187,0 25,0 C11.1928813,0 -1.42108547e-14,11.1928813 -1.42108547e-14,25 C-1.42108547e-14,38.8071187 11.1928813,50 25,50 Z M25,41 C33.836556,41 41,33.836556 41,25 C41,16.163444 33.836556,9 25,9 C16.163444,9 9,16.163444 9,25 C9,33.836556 16.163444,41 25,41 Z" id="Combined-Shape-Copy"></path>
                </g>
                <g id="bottom-copy-2" transform="translate(562.000000, 114.000000) rotate(-270.000000) translate(-562.000000, -114.000000) translate(537.000000, 48.000000)">
                    <rect id="Rectangle" fill="#E2E2E2" x="13" y="44" width="25" height="88"></rect>
                    <path d="M25,50 C38.8071187,50 50,38.8071187 50,25 C50,11.1928813 38.8071187,0 25,0 C11.1928813,0 0,11.1928813 0,25 C0,38.8071187 11.1928813,50 25,50 Z M25,41 C33.836556,41 41,33.836556 41,25 C41,16.163444 33.836556,9 25,9 C16.163444,9 9,16.163444 9,25 C9,33.836556 16.163444,41 25,41 Z" id="Combined-Shape-Copy" fill="#A85454"></path>
                </g>
                <g id="bottom-copy" transform="translate(417.000000, 114.000000) rotate(-270.000000) translate(-417.000000, -114.000000) translate(392.000000, 27.000000)" fill="#E2E2E2">
                    <rect id="Rectangle" x="13" y="44" width="25" height="88"></rect>
                    <path d="M25,174 C38.8071187,174 50,162.807119 50,149 C50,135.192881 38.8071187,124 25,124 C11.1928813,124 0,135.192881 0,149 C0,162.807119 11.1928813,174 25,174 Z M25,165 C33.836556,165 41,157.836556 41,149 C41,140.163444 33.836556,133 25,133 C16.163444,133 9,140.163444 9,149 C9,157.836556 16.163444,165 25,165 Z" id="Combined-Shape"></path>
                    <path d="M25,50 C38.8071187,50 50,38.8071187 50,25 C50,11.1928813 38.8071187,0 25,0 C11.1928813,0 0,11.1928813 0,25 C0,38.8071187 11.1928813,50 25,50 Z M25,41 C33.836556,41 41,33.836556 41,25 C41,16.163444 33.836556,9 25,9 C16.163444,9 9,16.163444 9,25 C9,33.836556 16.163444,41 25,41 Z" id="Combined-Shape-Copy"></path>
                </g>
                <g id="bottom-copy-3" transform="translate(168.000000, 114.500000) rotate(-270.000000) translate(-168.000000, -114.500000) translate(155.500000, 70.500000)" fill="#E2E2E2">
                    <rect id="Rectangle" x="-1.42108547e-14" y="-2.84217094e-14" width="25" height="88"></rect>
                </g>
                <g id="bottom-copy-4" transform="translate(65.500000, 114.000000) rotate(-270.000000) translate(-65.500000, -114.000000) translate(40.500000, 48.500000)" fill="#E2E2E2">
                    <rect id="Rectangle" x="13" y="43" width="25" height="88"></rect>
                    <path d="M25,50 C38.8071187,50 50,38.8071187 50,25 C50,11.1928813 38.8071187,-2.27373675e-13 25,-2.27373675e-13 C11.1928813,-2.27373675e-13 -2.4158453e-13,11.1928813 -2.4158453e-13,25 C-2.4158453e-13,38.8071187 11.1928813,50 25,50 Z M25,41 C33.836556,41 41,33.836556 41,25 C41,16.163444 33.836556,9 25,9 C16.163444,9 9,16.163444 9,25 C9,33.836556 16.163444,41 25,41 Z" id="Combined-Shape-Copy-2"></path>
                </g>
                <g id="Upstream" transform="translate(603.000000, 114.000000) rotate(-270.000000) translate(-603.000000, -114.000000) translate(543.000000, 54.000000)">
                    <circle id="Combined-Shape" fill="#D657BA" cx="60" cy="60" r="60"></circle>
                    <text id="1-2-U" transform="translate(60.456010, 60.000000) rotate(-90.000000) translate(-60.456010, -60.000000) " font-family="Lato-Regular, Lato" font-size="36" font-weight="normal" fill="#FFFFFF">
                        <tspan x="18" y="74">1 2 U</tspan>
                    </text>
                </g>
                <path d="M238.792881,103.424248 C238.792881,103.424248 275.382724,111.417941 281.424716,63.7137464 C287.466709,16.0095515 342.404582,35.7966675 342.404582,35.7966678" id="Path-2" stroke="#E3E3E3" stroke-width="25" transform="translate(290.598731, 67.828229) rotate(-13.000000) translate(-290.598731, -67.828229) "></path>
                <g id="bottom" transform="translate(271.000000, 114.000000) rotate(-270.000000) translate(-271.000000, -114.000000) translate(246.000000, 49.000000)" fill="#E2E2E2">
                    <rect id="Rectangle" x="13" y="-2.27373675e-13" width="25" height="88"></rect>
                    <path d="M25,130 C38.8071187,130 50,118.807119 50,105 C50,91.1928813 38.8071187,80 25,80 C11.1928813,80 1.98951966e-13,91.1928813 1.98951966e-13,105 C1.98951966e-13,118.807119 11.1928813,130 25,130 Z M25,121 C33.836556,121 41,113.836556 41,105 C41,96.163444 33.836556,89 25,89 C16.163444,89 9,96.163444 9,105 C9,113.836556 16.163444,121 25,121 Z" id="Combined-Shape"></path>
                </g>
            </g>
        </g>
    </g>
</svg>